# xmcd
#
# Track frame offsets:
#	150
#	16907
#	31660
#	49475
#	63059
#	81844
#	98378
#	114591
#	133621
#	156881
#	179197
#	195273
#	220786
#	235637
#	254301
#
# Disc length: 3780 seconds
#
# Revision: 0
# Processed by: cddbd v1.4PL0 Copyright (c) Steve Scherf et al.
# Submitted via: EasyCDDAExtractor 4.6.0.1
#
DISCID=bb0ec20f
DTITLE=Faith Hill - There You'll Be
DYEAR=1900
DGENRE=Country
TTITLE0=There You'll Be
TTITLE1=The Kiss
TTITLE2=Breathe
TTITLE3=The Way You Love Me
TTITLE4=Let Me Let Go
TTITLE5=Piece Of My Heart
TTITLE6=If My Heart Had Wings
TTITLE7=There Will Come A Day
TTITLE8=Love Will Always Win
TTITLE9=My Wild Frontier
TTITLE10=You Give Me Love
TTITLE11=Somewhere Down The Road
TTITLE12=Over The Rainbow
TTITLE13=Breathe (remix)
TTITLE14=The Way You Love Me (remix)
EXTD=
EXTT0=
EXTT1=
EXTT2=
EXTT3=
EXTT4=
EXTT5=
EXTT6=
EXTT7=
EXTT8=
EXTT9=
EXTT10=
EXTT11=
EXTT12=
EXTT13=
EXTT14=
PLAYORDER=
